<?xml version="1.0" encoding="UTF-8" standalone="no"?>
<svg
   svg:contrastcolor="151f42"
   svg:template="Contrast"
   svg:presentation="2.5"
   svg:layouttype="undefined"
   svg:specialfontid="undefined"
   svg:id1="000"
   svg:id2="000"
   svg:companyname="Analy Gram"
   svg:companytagline=""
   version="1.1"
   viewBox="0 0 258 258"
   id="svg55"
   sodipodi:docname="365b789a7796a4668858697f0166a345.svg"
   width="258"
   height="258"
   xmlns:inkscape="http://www.inkscape.org/namespaces/inkscape"
   xmlns:sodipodi="http://sodipodi.sourceforge.net/DTD/sodipodi-0.dtd"
   xmlns:xlink="http://www.w3.org/1999/xlink"
   xmlns="http://www.w3.org/2000/svg"
   xmlns:svg="http://www.w3.org/2000/svg">
  <sodipodi:namedview
     id="namedview57"
     pagecolor="#ffffff"
     bordercolor="#666666"
     borderopacity="1.0"
     inkscape:pageshadow="2"
     inkscape:pageopacity="0.0"
     inkscape:pagecheckerboard="0" />
  <defs
     id="defs7">
    <linearGradient
       x1="146"
       y1="235"
       x2="404"
       y2="235"
       gradientUnits="userSpaceOnUse"
       id="color-11069111621">
      <stop
         offset="0"
         stop-color="#4568dc"
         id="stop2" />
      <stop
         offset="1"
         stop-color="#b06ab3"
         id="stop4" />
    </linearGradient>
    <linearGradient
       inkscape:collect="always"
       xlink:href="#color-11069111621"
       id="linearGradient59"
       gradientUnits="userSpaceOnUse"
       x1="146"
       y1="235"
       x2="404"
       y2="235" />
    <linearGradient
       inkscape:collect="always"
       xlink:href="#color-11069111621"
       id="linearGradient61"
       gradientUnits="userSpaceOnUse"
       x1="146"
       y1="235"
       x2="404"
       y2="235" />
    <linearGradient
       inkscape:collect="always"
       xlink:href="#color-11069111621"
       id="linearGradient63"
       gradientUnits="userSpaceOnUse"
       x1="146"
       y1="235"
       x2="404"
       y2="235" />
    <linearGradient
       inkscape:collect="always"
       xlink:href="#color-11069111621"
       id="linearGradient65"
       gradientUnits="userSpaceOnUse"
       x1="146"
       y1="235"
       x2="404"
       y2="235" />
    <linearGradient
       inkscape:collect="always"
       xlink:href="#color-11069111621"
       id="linearGradient67"
       gradientUnits="userSpaceOnUse"
       x1="146"
       y1="235"
       x2="404"
       y2="235" />
    <linearGradient
       inkscape:collect="always"
       xlink:href="#color-11069111621"
       id="linearGradient69"
       gradientUnits="userSpaceOnUse"
       x1="146"
       y1="235"
       x2="404"
       y2="235" />
    <linearGradient
       inkscape:collect="always"
       xlink:href="#color-11069111621"
       id="linearGradient71"
       gradientUnits="userSpaceOnUse"
       x1="146"
       y1="235"
       x2="404"
       y2="235" />
    <linearGradient
       inkscape:collect="always"
       xlink:href="#color-11069111621"
       id="linearGradient73"
       gradientUnits="userSpaceOnUse"
       x1="146"
       y1="235"
       x2="404"
       y2="235" />
    <linearGradient
       inkscape:collect="always"
       xlink:href="#color-11069111621"
       id="linearGradient75"
       gradientUnits="userSpaceOnUse"
       x1="146"
       y1="235"
       x2="404"
       y2="235" />
    <linearGradient
       inkscape:collect="always"
       xlink:href="#color-11069111621"
       id="linearGradient77"
       gradientUnits="userSpaceOnUse"
       x1="146"
       y1="235"
       x2="404"
       y2="235" />
    <linearGradient
       inkscape:collect="always"
       xlink:href="#color-11069111621"
       id="linearGradient79"
       gradientUnits="userSpaceOnUse"
       x1="146"
       y1="235"
       x2="404"
       y2="235" />
    <linearGradient
       inkscape:collect="always"
       xlink:href="#color-11069111621"
       id="linearGradient81"
       gradientUnits="userSpaceOnUse"
       x1="146"
       y1="235"
       x2="404"
       y2="235" />
    <linearGradient
       inkscape:collect="always"
       xlink:href="#color-11069111621"
       id="linearGradient83"
       gradientUnits="userSpaceOnUse"
       x1="146"
       y1="235"
       x2="404"
       y2="235" />
    <linearGradient
       inkscape:collect="always"
       xlink:href="#color-11069111621"
       id="linearGradient85"
       gradientUnits="userSpaceOnUse"
       x1="146"
       y1="235"
       x2="404"
       y2="235" />
    <linearGradient
       inkscape:collect="always"
       xlink:href="#color-11069111621"
       id="linearGradient87"
       gradientUnits="userSpaceOnUse"
       x1="146"
       y1="235"
       x2="404"
       y2="235" />
    <linearGradient
       inkscape:collect="always"
       xlink:href="#color-11069111621"
       id="linearGradient89"
       gradientUnits="userSpaceOnUse"
       x1="146"
       y1="235"
       x2="404"
       y2="235" />
  </defs>
  <g
     fill="url(#color-11069111621)"
     fill-rule="none"
     stroke="none"
     stroke-width="1"
     stroke-linecap="butt"
     stroke-linejoin="miter"
     stroke-miterlimit="10"
     stroke-dasharray="none"
     stroke-dashoffset="0"
     font-family="none"
     font-weight="none"
     font-size="none"
     text-anchor="none"
     style="mix-blend-mode:normal;fill:url(#linearGradient89)"
     id="g25"
     transform="translate(-146,-106)">
    <g
       data-paper-data="{&quot;isGlobalGroup&quot;:true,&quot;bounds&quot;:{&quot;x&quot;:146,&quot;y&quot;:106,&quot;width&quot;:258,&quot;height&quot;:258}}"
       id="g23"
       style="fill:url(#linearGradient87)">
      <g
         data-paper-data="{&quot;fillRule&quot;:&quot;evenodd&quot;,&quot;fillRuleOriginal&quot;:&quot;evenodd&quot;,&quot;isIcon&quot;:true,&quot;iconStyle&quot;:&quot;standalone&quot;,&quot;selectedEffects&quot;:{&quot;container&quot;:&quot;enclosed_circle_outline3&quot;,&quot;transformation&quot;:&quot;&quot;,&quot;pattern&quot;:&quot;&quot;},&quot;bounds&quot;:{&quot;x&quot;:204.10580864463236,&quot;y&quot;:164.10579875675072,&quot;width&quot;:141.78849838102144,&quot;height&quot;:141.78812264151972},&quot;widthRatioIconToContainer&quot;:0.7741017410717311,&quot;heightRatioIconToContainer&quot;:0.7740980851448602,&quot;relativeBoundsIconToContainer&quot;:{&quot;top&quot;:-0.018876299455397216,&quot;left&quot;:-6.108039728142745e-7},&quot;iconType&quot;:&quot;icon&quot;,&quot;rawIconId&quot;:&quot;963934&quot;,&quot;isDetailed&quot;:false,&quot;blockLetter&quot;:&quot;O&quot;,&quot;suitableAsStandaloneIcon&quot;:true}"
         fill-rule="evenodd"
         id="element-id-58261"
         style="fill:url(#linearGradient61)">
        <path
           d="m 283.71201,232.6664 c -5.03056,-0.0457 -9.10076,-4.18475 -9.07789,-9.21509 0.0229,-1.66923 0.4802,-3.22414 1.28051,-4.57325 l -10.3584,-10.3584 c -1.37197,0.84605 -2.97261,1.28051 -4.64184,1.28051 h -0.0686 c -1.66924,-0.0229 -3.22414,-0.47996 -4.55038,-1.28051 l -19.1619,19.1619 c 0.84602,1.4177 1.30338,3.01811 1.28048,4.71021 -0.0229,2.51551 -1.05189,4.77926 -2.72108,6.42563 -1.64644,1.64614 -3.91017,2.65249 -6.42541,2.65249 h -0.0915 c -5.03048,-0.0457 -9.10074,-4.18452 -9.05496,-9.21509 0.0229,-2.44669 0.98325,-4.7333 2.72111,-6.44828 1.73786,-1.71497 4.0701,-2.62962 6.49392,-2.62962 1.64643,0.0229 3.20134,0.45732 4.57325,1.25742 l 19.16199,-19.13858 c -0.84604,-1.3953 -1.30338,-2.99571 -1.30338,-4.71067 0.0229,-2.44691 1.00612,-4.73354 2.74395,-6.44843 1.73784,-1.71497 4.0016,-2.6523 6.49401,-2.62941 2.44669,0.0229 4.7333,1.006 6.44828,2.74386 1.71496,1.73788 2.62962,4.04737 2.60675,6.47142 0,1.64614 -0.43446,3.20104 -1.28051,4.57325 l 10.3584,10.35817 c 1.3491,-0.82318 2.94975,-1.28051 4.64184,-1.28051 h 0.0915 c 1.62351,0.0229 3.20127,0.45732 4.55038,1.28051 l 24.39826,-24.46684 c -0.80032,-1.37192 -1.25764,-2.97272 -1.23477,-4.6648 0.0229,-2.44657 0.98325,-4.73319 2.72108,-6.44816 1.73784,-1.71496 4.04732,-2.56127 6.49401,-2.62966 2.44669,0.0229 4.7333,0.98337 6.44828,2.72122 1.71497,1.76047 2.65249,4.0471 2.62962,6.49366 -0.0229,2.51549 -1.05185,4.77925 -2.72108,6.42555 -1.64637,1.6463 -3.91013,2.65255 -6.42541,2.65255 h -0.0915 c -1.66924,-0.0229 -3.24701,-0.48037 -4.59612,-1.30326 l -24.39826,24.44389 c 0.86892,1.41771 1.30338,3.04121 1.28051,4.71067 0,2.44646 -0.98325,4.73308 -2.72108,6.44805 -1.71497,1.6921 -4.0016,2.62962 -6.42541,2.62962 z m 25.5873,-23.2092 h 20.57961 v 77.74518 h -20.57961 z m -59.4522,29.7261 h 20.57961 v 48.01908 h -20.57961 z m 29.72611,2.28662 h 20.57961 v 45.73246 h -20.57961 z m -59.45222,9.1465 h 20.57963 v 36.58597 H 220.121 Z m 4.74924,-65.7462 c 6.54045,-6.54048 14.05167,-11.6045 22.53367,-15.19208 8.78297,-3.71489 17.98168,-5.57234 27.59613,-5.57234 9.61417,0 18.81282,1.85744 27.59594,5.57234 4.13087,1.74721 8.03147,3.8446 11.70181,6.29218 l -0.32762,0.18894 -0.34189,0.22705 -0.87479,0.66214 -0.24427,0.20458 -0.43436,0.40057 -0.21485,0.21723 -0.73421,0.81518 -0.2452,0.30755 -0.60707,0.86225 c -3.09446,-1.98169 -6.3617,-3.70005 -9.80171,-5.15508 -8.10403,-3.42768 -16.59462,-5.14152 -25.47178,-5.14152 -8.87719,0 -17.36776,1.71384 -25.47173,5.14152 -7.8289,3.31134 -14.76289,7.98656 -20.80197,14.02563 -6.03906,6.03905 -10.71426,12.97303 -14.02561,20.80192 -3.42769,8.10396 -5.14153,16.59457 -5.14153,25.47182 0,8.87716 1.71384,17.36759 5.14153,25.47131 0.65569,1.55027 1.36486,3.06545 2.12751,4.54553 v 10.5375 c -2.81869,-4.03322 -5.20206,-8.35267 -7.15008,-12.95839 -3.71489,-8.78312 -5.57234,-17.98177 -5.57234,-27.59594 0,-9.61448 1.85744,-18.81321 5.57234,-27.59617 3.58757,-8.482 8.6516,-15.99324 15.19208,-22.53372 z m 115.45164,22.53372 c 3.71496,8.78297 5.57243,17.98169 5.57243,27.59617 0,9.61417 -1.85748,18.81282 -5.57243,27.59594 -1.94805,4.60568 -4.33143,8.92512 -7.15015,12.9583 v -10.53762 c 0.76262,-1.48002 1.47176,-2.99512 2.12744,-4.54531 3.42756,-8.10372 5.14134,-16.59415 5.14134,-25.47131 0,-8.87725 -1.71378,-17.36786 -5.14134,-25.47182 -1.948,-4.60547 -4.36794,-8.90125 -7.25983,-12.88733 l 0.75003,-0.58805 0.22559,-0.19411 0.40027,-0.37658 0.18962,-0.1942 0.73421,-0.81524 0.24473,-0.30723 0.63192,-0.89684 0.20831,-0.33712 0.27582,-0.51359 c 3.46956,4.60377 6.34357,9.59909 8.62204,14.98594 z m -37.7259,92.91801 c -8.78312,3.71465 -17.98177,5.57197 -27.59594,5.57197 -9.61442,0 -18.81313,-1.85732 -27.59613,-5.57197 -5.99848,-2.53716 -11.51144,-5.81277 -16.53888,-9.82684 h 9.41578 c 2.92968,1.83429 6.01217,3.43566 9.2475,4.80413 8.10396,3.42756 16.59454,5.14134 25.47173,5.14134 8.87716,0 17.36775,-1.71378 25.47178,-5.14134 3.23529,-1.36846 6.31775,-2.96984 9.24739,-4.80413 h 9.41561 c -5.02739,4.01407 -10.54033,7.28968 -16.53883,9.82684 z"
           data-paper-data="{&quot;isPathIcon&quot;:true}"
           id="element-id-52301"
           style="fill:url(#linearGradient59)" />
      </g>
      <g
         data-paper-data="{&quot;isMirroredPrimaryText&quot;:true}"
         fill-rule="nonzero"
         id="element-id-12567"
         style="fill:url(#linearGradient81)">
        <path
           d="m 162.08909,259.71322 23.69435,1.46429 0.94861,3.01368 -18.41572,15.3056 -1.00308,-3.18671 5.62613,-4.48097 -2.78229,-8.83916 -7.13301,-0.30631 z m 10.60046,3.36709 2.25579,7.1665 5.15988,-4.04894 c 1.5666,-1.2327 2.87043,-2.19251 3.9115,-2.87943 -1.44016,0.15748 -2.9055,0.20139 -4.39603,0.13173 z"
           data-paper-data="{&quot;glyphName&quot;:&quot;A&quot;,&quot;glyphIndex&quot;:0,&quot;firstGlyphOfWord&quot;:true,&quot;word&quot;:1}"
           id="element-id-77254"
           style="fill:url(#linearGradient63)" />
        <path
           d="m 175.10916,293.20266 18.24884,-12.57425 1.70687,2.47716 -7.72322,19.45741 14.3277,-9.87241 1.59537,2.31534 -18.24884,12.57425 -1.70687,-2.47716 7.73567,-19.46599 -14.34015,9.88099 z"
           data-paper-data="{&quot;glyphName&quot;:&quot;N&quot;,&quot;glyphIndex&quot;:1,&quot;word&quot;:1}"
           id="element-id-11051"
           style="fill:url(#linearGradient65)" />
        <path
           d="m 195.55207,318.95161 20.41105,-12.12252 2.47999,1.95748 -6.61089,23.01513 -2.62239,-2.06988 2.1294,-6.87008 -7.27386,-5.74133 -6.06891,3.76059 z m 10.65763,-3.18154 5.8974,4.65488 1.98708,-6.25059 c 0.60139,-1.90055 1.13912,-3.42766 1.61319,-4.58132 -1.1019,0.94057 -2.28853,1.80143 -3.55988,2.58257 z"
           data-paper-data="{&quot;glyphName&quot;:&quot;A&quot;,&quot;glyphIndex&quot;:2,&quot;word&quot;:1}"
           id="element-id-50325"
           style="fill:url(#linearGradient67)" />
        <path
           d="m 224.88076,339.19142 8.39992,-20.50788 2.71387,1.11159 -7.40866,18.08778 10.10006,4.13693 -0.99126,2.4201 z"
           data-paper-data="{&quot;glyphName&quot;:&quot;L&quot;,&quot;glyphIndex&quot;:3,&quot;word&quot;:1}"
           id="element-id-72930"
           style="fill:url(#linearGradient69)" />
        <path
           d="m 257.04561,348.75131 1.3316,-9.29272 -6.64282,-13.85621 3.53153,0.50605 3.37686,7.23384 c 0.62083,1.3514 1.18678,2.69493 1.69787,4.0306 0.82282,-1.0529 1.80603,-2.23044 2.94963,-3.53263 l 5.174,-5.84057 3.38189,0.48461 -10.56593,11.39029 -1.3316,9.29272 z"
           data-paper-data="{&quot;glyphName&quot;:&quot;Y&quot;,&quot;glyphIndex&quot;:4,&quot;lastGlyphOfWord&quot;:true,&quot;word&quot;:1}"
           id="element-id-67365"
           style="fill:url(#linearGradient71)" />
        <path
           d="m 310.6681,335.29956 -0.85116,-2.45686 8.86546,-3.08735 2.69203,7.77053 c -0.98566,1.55735 -2.10736,2.86054 -3.36512,3.90955 -1.25776,1.04901 -2.64845,1.83744 -4.17209,2.36529 -2.05691,0.7126 -4.07832,0.91961 -6.06424,0.62104 -1.98592,-0.29857 -3.69607,-1.13263 -5.13045,-2.50219 -1.43438,-1.36956 -2.50787,-3.08279 -3.22046,-5.1397 -0.706,-2.03786 -0.93884,-4.08766 -0.69853,-6.14938 0.24031,-2.06173 1.01191,-3.79824 2.31481,-5.20952 1.3029,-1.41129 2.99709,-2.47817 5.08256,-3.20067 1.51411,-0.52455 2.96795,-0.75358 4.36152,-0.68709 1.39357,0.0665 2.58969,0.41737 3.58836,1.05262 0.99867,0.63526 1.92307,1.59489 2.77319,2.87888 l -2.26218,1.55164 c -0.68374,-0.95768 -1.36449,-1.66041 -2.04224,-2.10821 -0.67775,-0.4478 -1.51342,-0.70491 -2.507,-0.77132 -0.99358,-0.0664 -2.01888,0.0835 -3.0759,0.44968 -1.26652,0.43877 -2.29483,1.011 -3.08492,1.71668 -0.79009,0.70568 -1.35957,1.47091 -1.70843,2.29571 -0.34886,0.82479 -0.55011,1.66777 -0.60373,2.52893 -0.0846,1.47984 0.13537,2.97681 0.65992,4.49092 0.64661,1.86645 1.50905,3.31683 2.58731,4.35115 1.07826,1.03431 2.33717,1.64341 3.77674,1.82728 1.43957,0.18388 2.84975,0.0366 4.23054,-0.44173 1.19986,-0.41568 2.29115,-1.05239 3.27387,-1.91013 0.98272,-0.85774 1.67856,-1.65075 2.08752,-2.37904 l -1.35096,-3.89955 z"
           data-paper-data="{&quot;glyphName&quot;:&quot;G&quot;,&quot;glyphIndex&quot;:5,&quot;firstGlyphOfWord&quot;:true,&quot;word&quot;:2}"
           id="element-id-72721"
           style="fill:url(#linearGradient73)" />
        <path
           d="m 337.89064,331.98538 -13.58429,-17.50996 7.76363,-6.02305 c 1.56069,-1.21079 2.86913,-1.97397 3.92534,-2.28955 1.05621,-0.31558 2.13604,-0.26364 3.23952,0.1558 1.10347,0.41944 2.02895,1.11091 2.77642,2.07439 0.96369,1.24218 1.37391,2.60124 1.23067,4.07717 -0.14324,1.47593 -0.96535,2.98109 -2.46633,4.51545 0.84169,-0.18105 1.53299,-0.25179 2.07389,-0.21223 1.15867,0.096 2.40197,0.37508 3.72991,0.83722 l 6.74296,2.40278 -2.91435,2.26096 -5.14334,-1.84528 c -1.49226,-0.52599 -2.67357,-0.8978 -3.54394,-1.11542 -0.87037,-0.21763 -1.56523,-0.30356 -2.08458,-0.25779 -0.51935,0.0458 -0.99216,0.16385 -1.41843,0.35424 -0.30601,0.14812 -0.75762,0.45383 -1.35482,0.91714 l -2.68741,2.0849 6.03232,7.77557 z m -5.27189,-11.57981 4.98066,-3.86402 c 1.05904,-0.82161 1.80222,-1.57355 2.22954,-2.25584 0.42732,-0.68229 0.60939,-1.38476 0.54619,-2.10743 -0.0632,-0.72266 -0.31409,-1.36667 -0.75269,-1.93202 -0.64246,-0.82812 -1.47123,-1.27573 -2.4863,-1.34283 -1.01507,-0.0671 -2.17157,0.40281 -3.46949,1.40975 l -5.54203,4.29953 z"
           data-paper-data="{&quot;glyphName&quot;:&quot;R&quot;,&quot;glyphIndex&quot;:6,&quot;word&quot;:2}"
           id="element-id-3296"
           style="fill:url(#linearGradient75)" />
        <path
           d="m 362.52155,310.50236 -13.04456,-19.83447 1.84186,-2.56704 23.29374,5.54995 -1.94761,2.71443 -6.96039,-1.81254 -5.40219,7.52916 4.03457,5.89032 z m -3.66627,-10.50073 4.37992,-6.10439 -6.33503,-1.69874 c -1.9261,-0.51372 -3.47623,-0.98095 -4.65039,-1.40169 0.99005,1.05767 1.90435,2.20363 2.74289,3.43787 z"
           data-paper-data="{&quot;glyphName&quot;:&quot;A&quot;,&quot;glyphIndex&quot;:7,&quot;word&quot;:2}"
           id="element-id-35513"
           style="fill:url(#linearGradient77)" />
        <path
           d="m 381.53106,279.86204 -21.1259,-6.69539 1.3336,-4.20789 16.54296,-0.25981 c 1.53917,-0.0197 2.6881,-0.0255 3.44679,-0.0177 -0.69245,-0.48376 -1.70253,-1.21619 -3.03025,-2.1973 l -13.09573,-9.71657 1.19202,-3.76116 21.1259,6.69539 -0.85405,2.69478 -17.68177,-5.60385 15.73618,11.74275 -0.79924,2.52185 -19.92085,0.41033 17.98439,5.69976 z"
           data-paper-data="{&quot;glyphName&quot;:&quot;M&quot;,&quot;glyphIndex&quot;:8,&quot;lastGlyphOfWord&quot;:true,&quot;word&quot;:2}"
           id="element-id-70620"
           style="fill:url(#linearGradient79)" />
      </g>
      <g
         data-paper-data="{&quot;isContainerElementsWrapper&quot;:true}"
         fill-rule="evenodd"
         id="element-id-52336"
         style="fill:url(#linearGradient85)">
        <path
           d="m 224.77981,116.14755 c -15.43631,6.52903 -29.10186,15.74094 -40.99664,27.63572 -11.89472,11.89473 -21.10659,25.56024 -27.63562,40.99654 C 149.38252,200.77419 146,217.51424 146,234.99995 c 0,17.48527 3.38252,34.22557 10.14755,50.22089 6.52885,15.43563 15.74072,29.10108 27.63562,40.99636 11.8949,11.89466 25.56045,21.10653 40.99664,27.63562 C 240.77407,360.61761 257.51412,364 274.99995,364 c 17.48527,0 34.22495,-3.38239 50.21995,-10.14718 15.43718,-6.52972 29.10294,-15.74128 40.99729,-27.63562 11.89403,-11.89528 21.10591,-25.56073 27.63562,-40.99636 6.76479,-15.99532 10.14718,-32.73561 10.14718,-50.22089 0,-17.48574 -3.38239,-34.22579 -10.14811,-50.22014 C 387.32341,169.3435 378.11153,155.67798 366.21626,143.78327 354.3216,131.88849 340.65615,122.67658 325.2199,116.14755 309.22583,109.38252 292.48584,106 274.99995,106 c -17.48577,0 -34.22582,3.38252 -50.22014,10.14755 z m 35.46289,27.41259 -1.3316,-9.29272 -10.26658,-11.43316 3.53146,-0.50605 5.27247,5.99447 c 0.97535,1.12264 1.89576,2.25313 2.76142,3.39153 0.49402,-1.24158 1.10697,-2.6478 1.83886,-4.21876 l 3.32568,-7.05853 3.38183,-0.4846 -6.94202,13.89906 1.3316,9.29272 z m 49.58946,-6.44576 -0.85166,2.45685 6.15659,2.13289 -1.35072,3.89955 c -0.77175,0.31921 -1.80904,0.51177 -3.11188,0.57769 -1.30314,0.0659 -2.55405,-0.10886 -3.75459,-0.52452 -1.38057,-0.47835 -2.57924,-1.23505 -3.59694,-2.2701 -1.01677,-1.03505 -1.62963,-2.2924 -1.83672,-3.77212 -0.20709,-1.47963 0.0124,-3.1527 0.65857,-5.01921 0.52518,-1.51405 1.27796,-2.82634 2.26021,-3.93667 0.57462,-0.64339 1.25433,-1.18119 2.03914,-1.6134 0.78357,-0.43217 1.70519,-0.68114 2.76207,-0.74681 1.05781,-0.0657 2.21917,0.12089 3.48594,0.55969 1.05688,0.36613 1.95518,0.88272 2.69491,1.5495 0.73972,0.66687 1.23691,1.38579 1.49251,2.15695 0.25559,0.77107 0.3554,1.74437 0.30037,2.91981 l 2.73688,0.18031 c 0.12686,-1.53467 -0.006,-2.86058 -0.39738,-3.97744 -0.39178,-1.11695 -1.11472,-2.13261 -2.1688,-3.04695 -1.05315,-0.91435 -2.33764,-1.63373 -3.8516,-2.15835 -2.08485,-0.72247 -4.07641,-0.93226 -5.97282,-0.62946 -1.89735,0.30279 -3.57735,1.18981 -5.04187,2.66095 -1.46452,1.47124 -2.54939,3.22577 -3.25553,5.2636 -0.71267,2.05686 -0.92909,4.06708 -0.64924,6.03047 0.27984,1.96339 1.10756,3.67663 2.48316,5.13973 1.37559,1.46315 3.09198,2.55104 5.14915,3.26365 1.5236,0.52785 3.10379,0.7687 4.74057,0.72256 1.63709,-0.0461 3.32456,-0.37602 5.0624,-0.98981 l 2.69211,-7.77055 z m -84.80814,-5.95613 8.39992,20.50786 12.81392,-5.24847 -0.9913,-2.4201 -10.09998,4.13686 -7.40871,-18.08778 z m 99.05039,24.66486 13.58461,-17.50997 7.76383,6.02301 c 1.56029,1.2108 2.62463,2.28851 3.19303,3.23314 0.56809,0.94466 0.78636,2.0035 0.6539,3.17661 -0.13184,1.1731 -0.57151,2.24139 -1.319,3.20488 -0.96391,1.24218 -2.17844,1.97731 -3.64358,2.20539 -1.46514,0.22808 -3.12742,-0.19415 -4.98684,-1.26668 0.38525,0.77029 0.62499,1.42231 0.72107,1.95607 0.19496,1.14617 0.23414,2.41983 0.1166,3.82095 l -0.65204,7.12856 -2.91412,-2.26096 0.50932,-5.44058 c 0.13806,-1.57617 0.20522,-2.81282 0.19962,-3.70996 -0.006,-0.89716 -0.0951,-1.59157 -0.26865,-2.08324 -0.1735,-0.49168 -0.40484,-0.92031 -0.69588,-1.28588 -0.21952,-0.2596 -0.62779,-0.62105 -1.22479,-1.08436 l -2.68744,-2.08491 -6.03252,7.77558 z m 9.90651,-7.98451 4.98031,3.86401 c 1.05906,0.82161 1.97229,1.35458 2.73968,1.59891 0.76678,0.24434 1.49251,0.2461 2.17719,0.005 0.68375,-0.24083 1.24531,-0.6439 1.68373,-1.20926 0.6424,-0.82814 0.87001,-1.74214 0.68282,-2.742 -0.1875,-0.99998 -0.93002,-2.00332 -2.22757,-3.01029 l -5.54186,-4.29954 z m -124.46421,20.90193 -7.04993,-22.66859 2.47999,-1.95752 20.85009,11.77602 -2.62243,2.06987 -6.18756,-3.66692 -7.27382,5.74133 2.24809,6.77643 z m -0.61899,-11.10513 5.89741,-4.65489 -5.61808,-3.38459 c -1.70888,-1.02641 -3.06931,-1.90416 -4.08131,-2.63325 0.6589,1.29027 1.22058,2.64441 1.68505,4.06242 z m 66.10223,-2.36346 c 22.01628,0 40.80846,7.78395 56.37654,23.35184 15.56747,15.56784 23.3512,34.3599 23.3512,56.37617 0,22.01718 -7.78342,40.80877 -23.3512,56.37654 -15.56809,15.56747 -34.36027,23.3512 -56.37654,23.3512 -22.01643,0 -40.80849,-7.78342 -56.37626,-23.3512 -15.56784,-15.56809 -23.35177,-34.36027 -23.35177,-56.37654 0,-22.01628 7.78392,-40.80833 23.35177,-56.37617 15.5679,-15.56789 34.35999,-23.35184 56.37626,-23.35184 z m -99.57957,21.73975 18.24882,12.57427 1.59537,-2.31534 -14.3402,-9.88095 20.94468,0.29598 1.70687,-2.47719 -18.24884,-12.57426 -1.5954,2.31533 14.32774,9.87246 -20.93217,-0.28749 z m 191.75575,-10.37878 -22.96781,6.00443 1.81526,2.53017 6.87206,-1.93541 5.40287,7.52923 -3.94675,6.01312 1.94772,2.7144 12.71802,-20.28891 z m -7.46626,11.99899 -4.37957,-6.10435 6.70042,-1.812 c 1.43747,-0.39906 2.81617,-0.89812 4.13518,-1.49724 -0.77517,0.97756 -1.71358,2.29638 -2.81711,3.95642 z m 0.33488,18.31557 21.12643,-6.69538 1.33299,4.20784 -13.37286,9.74112 c -1.24718,0.90269 -2.18279,1.56928 -2.80778,1.99987 0.84513,-0.003 2.09231,0.0135 3.74246,0.0507 l 16.3019,0.39962 1.19214,3.76121 -21.1255,6.69538 -0.85446,-2.69481 17.68154,-5.6038 -19.62739,-0.53506 -0.79849,-2.52187 16.04724,-11.80983 -17.98377,5.6997 z m -195.03982,5.3345 18.58367,14.77208 0.93496,-2.97037 -5.67152,-4.33685 2.78231,-8.83909 7.1784,-0.45055 1.00306,-3.18669 -23.86229,1.99781 z m 14.07881,-1.22619 -2.25583,7.16646 -5.46957,-4.27323 c -1.18188,-0.9108 -2.40825,-1.71414 -3.67894,-2.41002 1.2468,0.0333 2.86533,-0.007 4.85559,-0.11977 z m -20.55993,83.15948 c -6.46268,-15.27954 -9.7752,-31.25464 -9.93758,-47.92532 h 44.11436 c 0.29912,22.17367 8.33205,41.14405 24.09879,56.91114 16.07175,16.07119 35.47194,24.10678 58.20057,24.10678 22.72892,0 42.12964,-8.03528 58.20113,-24.10678 15.76647,-15.76709 23.79926,-34.73747 24.09838,-56.91114 h 44.11383 c -0.16231,16.67009 -3.47474,32.64485 -9.9373,47.92532 -6.39819,15.12749 -15.42599,28.51993 -27.0834,40.17734 -11.65772,11.6571 -25.05048,20.6849 -40.17828,27.0834 -15.67256,6.62922 -32.07736,9.94382 -49.21438,9.94382 -17.13708,0 -33.54213,-3.31461 -49.21512,-9.94382 -15.12758,-6.39819 -28.51998,-15.42599 -40.17725,-27.0834 -11.65747,-11.65772 -20.68539,-25.05017 -27.08377,-40.17734 z"
           data-paper-data="{&quot;isBaseLogoContainer&quot;:true}"
           id="element-id-23596"
           style="fill:url(#linearGradient83)" />
      </g>
    </g>
  </g>
  <rect
     data-element-id="element-id-52336"
     stroke-width="2"
     fill="transparent"
     class="invisible-element-box grouping-element"
     x="0"
     y="0"
     width="258"
     height="258"
     data-element-name="isContainerElementsWrapper"
     id="rect27" />
  <rect
     data-element-id="element-id-23596"
     stroke-width="2"
     fill="transparent"
     class="invisible-element-box individual-element"
     x="0"
     y="0"
     width="258"
     height="258"
     id="rect29" />
  <rect
     data-element-id="element-id-12567"
     stroke-width="2"
     fill="transparent"
     class="invisible-element-box grouping-element"
     x="16"
     y="147"
     width="226"
     height="96"
     data-element-name="isMirroredPrimaryText"
     id="rect31" />
  <rect
     data-element-id="element-id-58261"
     stroke-width="2"
     fill="transparent"
     class="invisible-element-box grouping-element"
     x="58"
     y="58"
     width="142"
     height="142"
     data-element-name="isIcon"
     id="rect33" />
  <rect
     data-element-id="element-id-52301"
     stroke-width="2"
     fill="transparent"
     class="invisible-element-box individual-element"
     x="58"
     y="58"
     width="142"
     height="142"
     id="rect35" />
  <rect
     data-element-id="element-id-11051"
     stroke-width="2"
     fill="transparent"
     class="invisible-element-box individual-element"
     x="29"
     y="175"
     width="28"
     height="27"
     id="rect37" />
  <rect
     data-element-id="element-id-70620"
     stroke-width="2"
     fill="transparent"
     class="invisible-element-box individual-element"
     x="214"
     y="147"
     width="28"
     height="27"
     id="rect39" />
  <rect
     data-element-id="element-id-3296"
     stroke-width="2"
     fill="transparent"
     class="invisible-element-box individual-element"
     x="178"
     y="200"
     width="29"
     height="26"
     id="rect41" />
  <rect
     data-element-id="element-id-50325"
     stroke-width="2"
     fill="transparent"
     class="invisible-element-box individual-element"
     x="50"
     y="201"
     width="23"
     height="25"
     id="rect43" />
  <rect
     data-element-id="element-id-35513"
     stroke-width="2"
     fill="transparent"
     class="invisible-element-box individual-element"
     x="203"
     y="182"
     width="25"
     height="22"
     id="rect45" />
  <rect
     data-element-id="element-id-72721"
     stroke-width="2"
     fill="transparent"
     class="invisible-element-box individual-element"
     x="153"
     y="216"
     width="23"
     height="23"
     id="rect47" />
  <rect
     data-element-id="element-id-77254"
     stroke-width="2"
     fill="transparent"
     class="invisible-element-box individual-element"
     x="16"
     y="154"
     width="25"
     height="20"
     id="rect49" />
  <rect
     data-element-id="element-id-67365"
     stroke-width="2"
     fill="transparent"
     class="invisible-element-box individual-element"
     x="106"
     y="220"
     width="20"
     height="24"
     id="rect51" />
  <rect
     data-element-id="element-id-72930"
     stroke-width="2"
     fill="transparent"
     class="invisible-element-box individual-element"
     x="79"
     y="213"
     width="14"
     height="26"
     id="rect53" />
</svg>
