<svg xmlns:mydata="http://www.w3.org/2000/svg" mydata:contrastcolor="151f42" mydata:template="Contrast" mydata:presentation="2.5" mydata:layouttype="undefined" mydata:specialfontid="undefined" mydata:id1="959" mydata:id2="108" mydata:companyname="Analy Gram" mydata:companytagline="" version="1.1" xmlns="http://www.w3.org/2000/svg" xmlns:xlink="http://www.w3.org/1999/xlink" style="height: 536px;" viewBox="0 0 550 470"><defs><linearGradient x1="84.76117" y1="235.0001" x2="465.23883" y2="235.0001" gradientUnits="userSpaceOnUse" id="color-16616198697"><stop offset="0" stop-color="#4568dc"></stop><stop offset="1" stop-color="#b06ab3"></stop></linearGradient></defs><g fill="url(#color-16616198697)" fill-rule="none" stroke="none" stroke-width="1" stroke-linecap="butt" stroke-linejoin="miter" stroke-miterlimit="10" stroke-dasharray="" stroke-dashoffset="0" font-family="none" font-weight="none" font-size="none" text-anchor="none" style="mix-blend-mode: normal"><g data-paper-data="{&quot;isGlobalGroup&quot;:true,&quot;bounds&quot;:{&quot;x&quot;:84.76116591788012,&quot;y&quot;:176.91011815837933,&quot;width&quot;:380.47766816423973,&quot;height&quot;:116.17996368317878}}"><g data-paper-data="{&quot;stacked&quot;:true,&quot;isPrimaryText&quot;:true}" fill-rule="nonzero" id="element-id-93042"><path d="M249.12878,221.03785c-0.37976,0.91142 -0.22785,1.74688 0.30381,2.50639c0.53166,0.83546 1.29117,1.21522 2.27854,1.21522h4.93684c1.29117,0 2.12664,-0.60761 2.50639,-1.82283l3.34186,-8.96226c0,-0.1519 0.07595,-0.22785 0.22785,-0.22785h16.93715c0.1519,0 0.22785,0.07595 0.22785,0.22785l3.34186,8.96226c0.37976,1.21522 1.29117,1.82283 2.58235,1.82283h4.86089c0.98737,0 1.74688,-0.37976 2.27854,-1.21522c0.53166,-0.83546 0.68356,-1.67093 0.30381,-2.58235l-16.02573,-42.07704c-0.22785,-0.53166 -0.53166,-0.98737 -0.98737,-1.36712c-0.45571,-0.37976 -0.98737,-0.53166 -1.51903,-0.53166h-7.06347c-0.53166,0 -1.06332,0.1519 -1.51903,0.45571c-0.45571,0.37976 -0.75951,0.83546 -0.98737,1.36712zM266.36974,204.32855c-0.37976,0 -0.45571,-0.1519 -0.30381,-0.37976l4.86089,-13.36744c0.07595,-0.07595 0.1519,-0.1519 0.30381,-0.1519c0.1519,0 0.22785,0.07595 0.30381,0.1519l4.86089,13.36744c0.07595,0.22785 0,0.37976 -0.22785,0.37976z" data-paper-data="{&quot;glyphName&quot;:&quot;A&quot;,&quot;glyphIndex&quot;:0,&quot;firstGlyphOfWord&quot;:true,&quot;word&quot;:1,&quot;line&quot;:1,&quot;firstGlyphOfFirstLine&quot;:true}" id="element-id-81286"></path><path d="M297.73764,222.02522c0,0.75951 0.30381,1.36712 0.83546,1.89878c0.60761,0.53166 1.21522,0.83546 1.97473,0.83546h5.01279c0.75951,0 1.44308,-0.30381 1.97473,-0.83546c0.60761,-0.60761 0.83546,-1.21522 0.83546,-1.97473v-26.65892c0,-0.1519 0.07595,-0.22785 0.22785,-0.30381c0.1519,-0.07595 0.30381,0 0.37976,0.07595l19.06379,28.32985c0.53166,0.83546 1.29117,1.21522 2.27854,1.21522h6.30396c0.75951,0 1.44308,-0.30381 1.97473,-0.83546c0.60761,-0.60761 0.83546,-1.21522 0.83546,-1.97473v-42.15299c0,-0.68356 -0.22785,-1.36712 -0.75951,-1.89878c-0.53166,-0.53166 -1.21522,-0.83546 -1.97473,-0.83546h-5.01279c-0.75951,0 -1.36712,0.30381 -1.89878,0.83546c-0.53166,0.53166 -0.83546,1.21522 -0.83546,1.89878v26.65892c0,0.07595 -0.07595,0.1519 -0.1519,0.22785c-0.1519,0.07595 -0.30381,0 -0.37976,-0.07595l-19.06379,-28.32985c-0.53166,-0.83546 -1.29117,-1.21522 -2.27854,-1.21522h-6.30396c-0.75951,0 -1.36712,0.30381 -1.89878,0.83546c-0.53166,0.53166 -0.83546,1.21522 -0.83546,1.89878z" data-paper-data="{&quot;glyphName&quot;:&quot;N&quot;,&quot;glyphIndex&quot;:1,&quot;word&quot;:1,&quot;line&quot;:1}" id="element-id-40127"></path><path d="M343.61225,221.03785c-0.37976,0.91142 -0.22785,1.74688 0.30381,2.50639c0.53166,0.83546 1.29117,1.21522 2.27854,1.21522h4.93684c1.29117,0 2.12664,-0.60761 2.50639,-1.82283l3.34186,-8.96226c0,-0.1519 0.07595,-0.22785 0.22785,-0.22785h16.93715c0.1519,0 0.22785,0.07595 0.22785,0.22785l3.34186,8.96226c0.37976,1.21522 1.29117,1.82283 2.58235,1.82283h4.86089c0.98737,0 1.74688,-0.37976 2.27854,-1.21522c0.53166,-0.83546 0.68356,-1.67093 0.30381,-2.58235l-16.02573,-42.07704c-0.22785,-0.53166 -0.53166,-0.98737 -0.98737,-1.36712c-0.45571,-0.37976 -0.98737,-0.53166 -1.51903,-0.53166h-7.06347c-0.53166,0 -1.06332,0.1519 -1.51903,0.45571c-0.45571,0.37976 -0.75951,0.83546 -0.98737,1.36712zM360.85321,204.32855c-0.37976,0 -0.45571,-0.1519 -0.30381,-0.37976l4.86089,-13.36744c0.07595,-0.07595 0.1519,-0.1519 0.30381,-0.1519c0.1519,0 0.22785,0.07595 0.30381,0.1519l4.86089,13.36744c0.07595,0.22785 0,0.37976 -0.22785,0.37976z" data-paper-data="{&quot;glyphName&quot;:&quot;A&quot;,&quot;glyphIndex&quot;:2,&quot;word&quot;:1,&quot;line&quot;:1}" id="element-id-80841"></path><path d="M392.22111,222.02522c0,0.75951 0.30381,1.36712 0.83546,1.89878c0.60761,0.53166 1.21522,0.83546 1.97473,0.83546h33.8743c0.75951,0 1.44308,-0.30381 1.97473,-0.83546c0.60761,-0.60761 0.83546,-1.21522 0.83546,-1.97473v-3.87352c0,-0.75951 -0.22785,-1.44308 -0.75951,-1.97473c-0.53166,-0.60761 -1.21522,-0.83546 -1.97473,-0.83546h-25.82346c-0.22785,0 -0.30381,-0.07595 -0.30381,-0.30381v-35.24142c0,-0.68356 -0.22785,-1.36712 -0.75951,-1.89878c-0.53166,-0.53166 -1.21522,-0.83546 -1.97473,-0.83546h-5.01279c-0.75951,0 -1.36712,0.30381 -1.89878,0.83546c-0.53166,0.53166 -0.83546,1.21522 -0.83546,1.89878z" data-paper-data="{&quot;glyphName&quot;:&quot;L&quot;,&quot;glyphIndex&quot;:3,&quot;word&quot;:1,&quot;line&quot;:1}" id="element-id-81113"></path><path d="M425.10804,177.13797c-0.53166,0 -1.06332,0.1519 -1.44308,0.37976c-0.45571,0.30381 -0.75951,0.68356 -0.98737,1.06332c-0.22785,0.45571 -0.37976,0.91142 -0.30381,1.44308c0.07595,0.53166 0.22785,0.98737 0.60761,1.44308l15.41812,20.73472c0.07595,0.07595 0.07595,0.1519 0.07595,0.22785v19.59545c0,0.75951 0.30381,1.36712 0.83546,1.89878c0.60761,0.53166 1.21522,0.83546 1.97473,0.83546h5.08874c0.68356,0 1.36712,-0.30381 1.89878,-0.83546c0.53166,-0.60761 0.83546,-1.21522 0.83546,-1.97473v-19.59545v-0.22785l15.49407,-20.73472c0.37976,-0.45571 0.53166,-0.91142 0.60761,-1.44308c0.07595,-0.53166 0,-0.98737 -0.22785,-1.44308c-0.22785,-0.45571 -0.60761,-0.83546 -0.98737,-1.13927c-0.45571,-0.30381 -0.98737,-0.45571 -1.51903,-0.45571h-5.24064c-0.98737,0 -1.67093,0.37976 -2.20259,1.13927l-10.93699,15.03837c-0.1519,0.22785 -0.30381,0.22785 -0.37976,0l-10.93699,-15.03837c-0.53166,-0.75951 -1.29117,-1.13927 -2.20259,-1.13927z" data-paper-data="{&quot;glyphName&quot;:&quot;Y&quot;,&quot;glyphIndex&quot;:4,&quot;lastGlyphOfWord&quot;:true,&quot;word&quot;:1,&quot;line&quot;:1,&quot;lastGlyphOfFirstLine&quot;:true}" id="element-id-581"></path><path d="M250.64909,275.9504c1.29845,3.20283 3.20283,6.14597 5.71316,8.82943c2.51033,2.51033 5.79972,4.58784 9.86818,6.05941c4.15503,1.47157 8.74287,2.25064 13.67696,2.25064c2.94314,0 5.79972,-0.17313 8.48318,-0.51938c2.77002,-0.43282 5.36691,-0.95219 7.9638,-1.73126c0.60594,-0.17313 1.21188,-0.51938 1.6447,-1.12532c0.51938,-0.60594 0.6925,-1.21188 0.6925,-1.90439v-22.67951c0,-0.86563 -0.25969,-1.6447 -0.86563,-2.25064c-0.60594,-0.6925 -1.38501,-0.95219 -2.25064,-0.95219h-5.79972c-0.86563,0 -1.55813,0.25969 -2.16408,0.86563c-0.60594,0.60594 -0.86563,1.38501 -0.86563,2.25064v16.70666c0,0.17313 -0.08656,0.25969 -0.34625,0.25969c-1.03876,0.08656 -2.07751,0.17313 -3.11627,0.25969c-1.03876,0.08656 -2.07751,0.08656 -3.02971,0.08656c-3.54908,0 -6.49223,-0.43282 -9.00255,-1.29845c-2.59689,-0.95219 -4.58784,-2.16408 -6.05941,-3.63565c-1.47157,-1.6447 -2.59689,-3.46252 -3.28939,-5.45347c-0.77907,-1.90439 -1.12532,-4.15503 -1.12532,-6.83848c0,-2.59689 0.34625,-4.93409 1.12532,-6.92504c0.6925,-1.99095 1.81782,-3.72221 3.28939,-5.36691c1.47157,-1.6447 3.46252,-2.85658 6.05941,-3.63565c2.51033,-0.86563 5.45347,-1.29845 9.00255,-1.29845c4.93409,0 9.86818,0.51938 14.62915,1.55813c0.95219,0.25969 1.90439,0.08656 2.68345,-0.51938c0.86563,-0.60594 1.21188,-1.47157 1.21188,-2.51033v-3.9819c0,-0.6925 -0.17313,-1.29845 -0.60594,-1.90439c-0.43282,-0.60594 -1.03876,-0.95219 -1.6447,-1.12532c-2.59689,-0.77907 -5.19378,-1.38501 -7.87724,-1.73126c-2.68345,-0.34625 -5.54003,-0.51938 -8.48318,-0.51938c-5.10722,0 -9.69506,0.6925 -13.67696,2.16408c-3.89534,1.47157 -7.18473,3.46252 -9.86818,6.05941c-2.51033,2.59689 -4.41471,5.54003 -5.71316,8.91599c-0.6925,1.6447 -1.21188,3.37596 -1.47157,5.19378c-0.34625,1.81782 -0.51938,3.63565 -0.51938,5.54003c0,3.89534 0.6925,7.53098 1.99095,10.73382z" data-paper-data="{&quot;glyphName&quot;:&quot;G&quot;,&quot;glyphIndex&quot;:5,&quot;firstGlyphOfWord&quot;:true,&quot;word&quot;:2,&quot;line&quot;:2,&quot;firstGlyphOfSecondLine&quot;:true}" id="element-id-44886"></path><path d="M305.44349,289.28111c0,0.86563 0.34625,1.55813 0.95219,2.16408c0.6925,0.60594 1.38501,0.95219 2.25064,0.95219h5.71316c0.86563,0 1.6447,-0.34625 2.25064,-0.95219c0.6925,-0.6925 0.95219,-1.38501 0.95219,-2.25064v-18.61105c0,-0.25969 0.08656,-0.34625 0.25969,-0.34625h5.45347c0.08656,0 0.17313,0.08656 0.25969,0.17313l15.66791,20.68856c0.60594,0.77907 1.47157,1.21188 2.51033,1.21188h6.14597c0.60594,0 1.21188,-0.17313 1.73126,-0.51938c0.51938,-0.34625 0.95219,-0.77907 1.21188,-1.29845c0.34625,-0.51938 0.43282,-1.03876 0.43282,-1.6447c-0.08656,-0.60594 -0.25969,-1.12532 -0.6925,-1.6447l-12.89789,-16.53354c-0.17313,-0.25969 -0.08656,-0.43282 0.17313,-0.43282c2.51033,-0.6925 4.84753,-1.81782 6.83848,-3.37596c2.16408,-1.6447 3.63565,-3.54908 4.58784,-5.71316c0.95219,-1.99095 1.47157,-4.15503 1.47157,-6.57879c0,-4.58784 -1.73126,-8.56974 -5.10722,-11.77257c-3.37596,-3.20283 -7.61755,-4.84753 -12.6382,-4.84753h-24.06452c-0.86563,0 -1.55813,0.34625 -2.16408,0.95219c-0.60594,0.60594 -0.95219,1.38501 -0.95219,2.16408zM317.73544,260.2825v-11.33976c0,-0.17313 0.08656,-0.25969 0.25969,-0.25969h14.9754c1.6447,0 3.02971,0.51938 4.15503,1.6447c1.12532,1.12532 1.6447,2.51033 1.6447,4.32815c0,1.73126 -0.51938,3.11627 -1.6447,4.24159c-1.12532,1.12532 -2.51033,1.73126 -4.15503,1.73126h-14.9754c-0.17313,0 -0.25969,-0.08656 -0.25969,-0.34625z" data-paper-data="{&quot;glyphName&quot;:&quot;R&quot;,&quot;glyphIndex&quot;:6,&quot;word&quot;:2,&quot;line&quot;:2}" id="element-id-82432"></path><path d="M354.43816,288.15579c-0.43282,1.03876 -0.25969,1.99095 0.34625,2.85658c0.60594,0.95219 1.47157,1.38501 2.59689,1.38501h5.6266c1.47157,0 2.42376,-0.6925 2.85658,-2.07751l3.80877,-10.21444c0,-0.17313 0.08656,-0.25969 0.25969,-0.25969h19.30355c0.17313,0 0.25969,0.08656 0.25969,0.25969l3.80877,10.21444c0.43282,1.38501 1.47157,2.07751 2.94314,2.07751h5.54003c1.12532,0 1.99095,-0.43282 2.59689,-1.38501c0.60594,-0.95219 0.77907,-1.90439 0.34625,-2.94314l-18.2648,-47.95592c-0.25969,-0.60594 -0.60594,-1.12532 -1.12532,-1.55813c-0.51938,-0.43282 -1.12532,-0.60594 -1.73126,-0.60594h-8.05036c-0.60594,0 -1.21188,0.17313 -1.73126,0.51938c-0.51938,0.43282 -0.86563,0.95219 -1.12532,1.55813zM374.08797,269.11192c-0.43282,0 -0.51938,-0.17313 -0.34625,-0.43282l5.54003,-15.23509c0.08656,-0.08656 0.17313,-0.17313 0.34625,-0.17313c0.17313,0 0.25969,0.08656 0.34625,0.17313l5.54003,15.23509c0.08656,0.25969 0,0.43282 -0.25969,0.43282z" data-paper-data="{&quot;glyphName&quot;:&quot;A&quot;,&quot;glyphIndex&quot;:7,&quot;word&quot;:2,&quot;line&quot;:2}" id="element-id-91006"></path><path d="M409.8385,289.28111c0,0.86563 0.34625,1.55813 0.95219,2.16408c0.6925,0.60594 1.38501,0.95219 2.25064,0.95219h5.79972c0.86563,0 1.6447,-0.34625 2.25064,-0.95219c0.6925,-0.6925 0.95219,-1.38501 0.95219,-2.25064v-29.60455c0,-0.08656 0.08656,-0.17313 0.17313,-0.25969c0.08656,-0.08656 0.25969,0 0.34625,0.08656l9.43537,14.36946c0.60594,0.95219 1.47157,1.38501 2.59689,1.38501h5.88629c1.12532,0 1.99095,-0.43282 2.59689,-1.38501l9.43537,-14.36946c0.08656,-0.08656 0.25969,-0.17313 0.34625,-0.08656c0.08656,0.08656 0.17313,0.17313 0.17313,0.25969v29.60455c0,0.86563 0.34625,1.55813 0.95219,2.16408c0.6925,0.60594 1.38501,0.95219 2.25064,0.95219h5.79972c0.86563,0 1.6447,-0.34625 2.25064,-0.95219c0.6925,-0.6925 0.95219,-1.38501 0.95219,-2.25064v-48.04248c0,-0.77907 -0.25969,-1.55813 -0.86563,-2.16408c-0.60594,-0.60594 -1.38501,-0.95219 -2.25064,-0.95219h-7.18473c-1.12532,0 -1.99095,0.51938 -2.59689,1.47157l-14.36946,21.90045c-0.25969,0.25969 -0.43282,0.25969 -0.51938,0l-14.36946,-21.90045c-0.60594,-0.95219 -1.47157,-1.47157 -2.59689,-1.47157h-7.18473c-0.86563,0 -1.55813,0.34625 -2.16408,0.95219c-0.60594,0.60594 -0.95219,1.38501 -0.95219,2.16408z" data-paper-data="{&quot;glyphName&quot;:&quot;M&quot;,&quot;glyphIndex&quot;:8,&quot;lastGlyphOfWord&quot;:true,&quot;word&quot;:2,&quot;line&quot;:2,&quot;lastGlyphOfSecondLine&quot;:true}" id="element-id-54315"></path></g><g data-paper-data="{&quot;fillRule&quot;:&quot;evenodd&quot;,&quot;fillRuleOriginal&quot;:&quot;evenodd&quot;,&quot;isIcon&quot;:true,&quot;iconStyle&quot;:&quot;standalone&quot;,&quot;selectedEffects&quot;:{&quot;container&quot;:&quot;&quot;,&quot;transformation&quot;:&quot;&quot;,&quot;pattern&quot;:&quot;&quot;},&quot;bounds&quot;:{&quot;x&quot;:84.76116591788012,&quot;y&quot;:176.91011815837933,&quot;width&quot;:116.17976368324129,&quot;height&quot;:116.17996368317878},&quot;iconType&quot;:&quot;icon&quot;,&quot;rawIconId&quot;:&quot;combine_91ab6c01-a6f4-48e6-a382-8154752285dd&quot;,&quot;combineTerms&quot;:&quot;instagram&quot;,&quot;suitableAsStandaloneIcon&quot;:true}" fill-rule="evenodd" id="element-id-66560"><g data-paper-data="{&quot;isPathIcon&quot;:true}" id="element-id-19458"><path d="M108.96496,176.91012c-13.3604,0 -24.20379,10.844 -24.20379,24.20399v67.77198c0,13.36 10.8434,24.20399 24.20379,24.20399h67.77198c13.361,0 24.20399,-10.844 24.20399,-24.20399v-67.77198c0,-13.36 -10.843,-24.20399 -24.20399,-24.20399zM191.25893,268.88609c0,7.987 -6.535,14.522 -14.522,14.522h-67.77198c-7.987,0 -14.5222,-6.535 -14.5222,-14.522v-67.77198c0,-7.987 6.5352,-14.522 14.5222,-14.522h67.77198c7.987,0 14.522,6.535 14.522,14.522z" id="element-id-76078"></path><path d="M176.73694,205.95511c0.318,0 0.633,-0.031 0.944,-0.093c0.312,-0.062 0.615,-0.154 0.908,-0.275c0.294,-0.122 0.573,-0.271 0.837,-0.448c0.265,-0.176 0.509,-0.377 0.734,-0.602c0.225,-0.224 0.425,-0.469 0.602,-0.733c0.176,-0.265 0.326,-0.544 0.447,-0.837c0.122,-0.294 0.214,-0.597 0.276,-0.908c0.062,-0.312 0.093,-0.627 0.093,-0.945c0,-0.318 -0.031,-0.632 -0.093,-0.944c-0.062,-0.312 -0.154,-0.615 -0.276,-0.908c-0.121,-0.294 -0.271,-0.573 -0.447,-0.837c-0.177,-0.264 -0.377,-0.509 -0.602,-0.734c-0.225,-0.224 -0.469,-0.425 -0.734,-0.602c-0.264,-0.176 -0.543,-0.325 -0.837,-0.447c-0.293,-0.122 -0.596,-0.214 -0.908,-0.276c-0.312,-0.062 -0.626,-0.093 -0.944,-0.093c-0.318,0 -0.633,0.031 -0.945,0.093c-0.311,0.062 -0.614,0.154 -0.908,0.276c-0.293,0.122 -0.572,0.271 -0.837,0.447c-0.264,0.177 -0.508,0.378 -0.733,0.602c-0.225,0.225 -0.426,0.47 -0.602,0.734c-0.177,0.264 -0.326,0.543 -0.448,0.837c-0.121,0.293 -0.213,0.596 -0.275,0.908c-0.062,0.312 -0.093,0.626 -0.093,0.944c0,0.318 0.031,0.633 0.093,0.945c0.062,0.311 0.154,0.614 0.275,0.908c0.122,0.293 0.271,0.572 0.448,0.837c0.176,0.264 0.377,0.509 0.602,0.733c0.225,0.225 0.469,0.426 0.733,0.602c0.265,0.177 0.544,0.326 0.837,0.448c0.294,0.121 0.597,0.213 0.908,0.275c0.312,0.062 0.627,0.093 0.945,0.093z" id="element-id-73840"></path><path d="M108.96496,235.0001c0,-18.68599 15.201,-33.88599 33.88599,-33.88599c18.68599,0 33.88599,15.2 33.88599,33.88599c0,18.68599 -15.2,33.88599 -33.88599,33.88599c-18.68499,0 -33.88599,-15.2 -33.88599,-33.88599zM118.64696,235.0001c0,13.361 10.843,24.20399 24.20399,24.20399c13.361,0 24.20399,-10.843 24.20399,-24.20399c0,-13.361 -10.843,-24.20399 -24.20399,-24.20399c-13.361,0 -24.20399,10.843 -24.20399,24.20399z" id="element-id-58619"></path><path d="M141.73495,216.51711c-1.15,0.041 -2.218,0.164 -3.286,0.411c-8.336,1.765 -14.578,9.198 -14.578,18.06799c0,5.749 2.67,10.923 6.817,14.332l2.341,-2.341c-1.848,-1.437 -3.367,-3.285 -4.394,-5.421l9.814,-5.666v17.12399c1.068,0.246 2.136,0.369 3.286,0.41zM138.44895,232.1221l-10.923,6.283c-0.246,-1.109 -0.369,-2.259 -0.369,-3.409c0,-7.063 4.804,-12.976 11.292,-14.701z" id="element-id-99585"></path><path d="M143.96795,253.43409c1.108,-0.041 2.217,-0.164 3.285,-0.41c8.295,-1.766 14.578,-9.199 14.578,-18.02799c0,-0.328 -0.041,-0.657 -0.041,-0.985l-3.491,-2.136l-6.529,3.778l1.642,2.875l4.887,-2.834l0.206,0.123c-0.37,6.653 -5.052,12.197 -11.252,13.839v-29.36099c4.928,1.314 8.911,5.092 10.512,9.897h3.409c-1.766,-6.653 -7.146,-11.827 -13.921,-13.264c-1.068,-0.247 -2.177,-0.37 -3.285,-0.411z" id="element-id-1543"></path></g></g><path d="M220.13169,293.08988v-116.17976h1.96655v116.17976z" data-paper-data="{&quot;isShapeTextSeparator&quot;:true}" fill-rule="nonzero" id="element-id-28791"></path></g></g><rect data-element-id="element-id-93042" stroke-width="2" fill="transparent" class="invisible-element-box grouping-element" x="249" y="177" width="216" height="116" data-element-name="isPrimaryText"></rect><rect data-element-id="element-id-66560" stroke-width="2" fill="transparent" class="invisible-element-box grouping-element" x="85" y="177" width="116" height="116" data-element-name="isIcon"></rect><rect data-element-id="element-id-19458" stroke-width="2" fill="transparent" class="invisible-element-box individual-element" x="85" y="177" width="116" height="116"></rect><rect data-element-id="element-id-76078" stroke-width="2" fill="transparent" class="invisible-element-box individual-element" x="85" y="177" width="116" height="116"></rect><rect data-element-id="element-id-58619" stroke-width="2" fill="transparent" class="invisible-element-box individual-element" x="109" y="201" width="68" height="68"></rect><rect data-element-id="element-id-54315" stroke-width="2" fill="transparent" class="invisible-element-box individual-element" x="410" y="238" width="55" height="54"></rect><rect data-element-id="element-id-44886" stroke-width="2" fill="transparent" class="invisible-element-box individual-element" x="249" y="237" width="50" height="56"></rect><rect data-element-id="element-id-91006" stroke-width="2" fill="transparent" class="invisible-element-box individual-element" x="354" y="238" width="51" height="54"></rect><rect data-element-id="element-id-82432" stroke-width="2" fill="transparent" class="invisible-element-box individual-element" x="305" y="238" width="46" height="54"></rect><rect data-element-id="element-id-81286" stroke-width="2" fill="transparent" class="invisible-element-box individual-element" x="249" y="177" width="45" height="48"></rect><rect data-element-id="element-id-80841" stroke-width="2" fill="transparent" class="invisible-element-box individual-element" x="343" y="177" width="45" height="48"></rect><rect data-element-id="element-id-581" stroke-width="2" fill="transparent" class="invisible-element-box individual-element" x="422" y="177" width="43" height="48"></rect><rect data-element-id="element-id-40127" stroke-width="2" fill="transparent" class="invisible-element-box individual-element" x="298" y="177" width="42" height="48"></rect><rect data-element-id="element-id-81113" stroke-width="2" fill="transparent" class="invisible-element-box individual-element" x="392" y="177" width="39" height="48"></rect><rect data-element-id="element-id-99585" stroke-width="2" fill="transparent" class="invisible-element-box individual-element" x="124" y="217" width="18" height="37"></rect><rect data-element-id="element-id-1543" stroke-width="2" fill="transparent" class="invisible-element-box individual-element" x="144" y="217" width="18" height="37"></rect><rect data-element-id="element-id-28791" stroke-width="2" fill="transparent" class="invisible-element-box individual-element" x="220" y="177" width="2" height="116"></rect><rect data-element-id="element-id-73840" stroke-width="2" fill="transparent" class="invisible-element-box individual-element" x="172" y="196" width="10" height="10"></rect></svg>