<svg id="visual" viewBox="0 0 1440 1080" width="1440" height="1080" xmlns="http://www.w3.org/2000/svg" xmlns:xlink="http://www.w3.org/1999/xlink" version="1.1"><rect x="0" y="0" width="1440" height="1080" fill="#fff"></rect><path d="M1227 1080L1240.3 1063.7C1253.7 1047.3 1280.3 1014.7 1277.8 982C1275.3 949.3 1243.7 916.7 1237 883.8C1230.3 851 1248.7 818 1239.8 785.2C1231 752.3 1195 719.7 1188 687C1181 654.3 1203 621.7 1220 589C1237 556.3 1249 523.7 1238.3 491C1227.7 458.3 1194.3 425.7 1196.8 393C1199.3 360.3 1237.7 327.7 1240 294.8C1242.3 262 1208.7 229 1194.7 196.2C1180.7 163.3 1186.3 130.7 1193.7 98C1201 65.3 1210 32.7 1214.5 16.3L1219 0L1440 0L1440 16.3C1440 32.7 1440 65.3 1440 98C1440 130.7 1440 163.3 1440 196.2C1440 229 1440 262 1440 294.8C1440 327.7 1440 360.3 1440 393C1440 425.7 1440 458.3 1440 491C1440 523.7 1440 556.3 1440 589C1440 621.7 1440 654.3 1440 687C1440 719.7 1440 752.3 1440 785.2C1440 818 1440 851 1440 883.8C1440 916.7 1440 949.3 1440 982C1440 1014.7 1440 1047.3 1440 1063.7L1440 1080Z" fill="#DFF9F5" stroke-linecap="round" stroke-linejoin="miter"></path></svg>